<svg id="Layer_1" data-name="Layer 1" xmlns="http://www.w3.org/2000/svg" viewBox="0 0 414.3 254.6"><defs><style>.cls-1{fill:none;stroke:#231f20;stroke-miterlimit:10;}</style></defs><path class="cls-1" d="M477.38,230.73c11.47-3.27,44.58-14.46,49.81-15.3,19.74-3.17,41,3,55.14,16.12,4.08,3.78,12.23,23.54,12.69,28.88,1.42,16.42,7.38,32.84,8.81,49.26,1.77,20.45-1.73,37.78-10.2,56.74-4.31,9.66-15.33,20.88-24.25,27.32-5.68,4.1-12.39,6.82-19.19,9.05-39.48,12.94-82.63,12-124.53,11.57-15.84-.15-32,.12-47,5-22,7.17-45.47,8.5-68.64,10.83s-85.78,6.34-98.11-43.51c-9.72-39.31,38.49-89.26,7.66-139.27-7.87-12.76-34-35-27.68-55.13,2.51-8,13.36-13.59,21.83-14.36,34.8-3.19,67.93,54.77,140.11,53.23C399.92,230.17,438.21,241.88,477.38,230.73Z" transform="translate(-190.48 -177.29)"/></svg>